<?xml version="1.0" encoding="UTF-8"?>
<svg id="Layer_5" data-name="Layer 5" xmlns="http://www.w3.org/2000/svg" version="1.1" viewBox="0 0 205.471 205.471">
  <defs>
    <style>
      .cls-1 {
        fill: #e1e1e1;
        stroke-width: 0px;
      }
    </style>
  </defs>
  <path class="cls-1" d="M0,75.319v2.693c.207-.468.285-.99.195-1.52L0,75.319Z"/>
  <path class="cls-1" d="M4.705,61.957c-.315-.969-1.137-1.661-2.145-1.808L0,59.762v2.608l2.191.318c.025.004.056.008.073.061.018.053-.005.075-.023.092L0,65.027v3.584l4.032-3.931c.73-.711.987-1.755.673-2.724Z"/>
  <path class="cls-1" d="M77.428,63.281l13.501,15.03c.493.548,1.199.862,1.943.863.15,0,.299-.014.445-.04h.002c.572-.102,1.099-.395,1.483-.824l13.499-15.028c.887-.986.892-2.477.012-3.469l-6.333-7.139c-.493-.557-1.203-.876-1.95-.877h-14.344c-.742.007-1.448.326-1.935.876l-6.333,7.141c-.88.991-.876,2.482.01,3.468ZM85.699,54.362l14.36.014,6.334,7.189-13.502,15.031c-.006.007-.015.009-.02.01,0,0-.034-.012-.035-.012l-13.499-15.078,6.362-7.154Z"/>
  <path class="cls-1" d="M15.011,27.446c.249.241.57.361.891.361.326,0,.651-.123.901-.37.394-.389,9.698-9.566,12.741-12.871,1.354-1.471,2.093-3.472,2.082-5.634-.011-2.284-.912-4.426-2.535-6.032-1.623-1.606-3.735-2.489-6.058-2.472-2.283.012-4.425.912-6.031,2.535-.467.472-.873.988-1.212,1.54-.346-.548-.757-1.06-1.228-1.527-1.623-1.607-3.812-2.493-6.058-2.473-2.283.012-4.425.912-6.032,2.535C.866,4.66-.012,6.811,0,9.095c.011,2.164.771,4.158,2.14,5.613,3.076,3.273,12.473,12.354,12.871,12.739ZM4.297,4.842c1.124-1.135,2.623-1.766,4.221-1.773h.032c1.586,0,3.079.614,4.207,1.73,1.136,1.124,1.766,2.623,1.774,4.221.004.706.577,1.277,1.283,1.277h.007c.706-.004,1.277-.578,1.277-1.284v-.006c-.008-1.598.606-3.103,1.73-4.239,1.124-1.135,2.622-1.766,4.22-1.773,1.594-.02,3.103.606,4.239,1.73,1.135,1.124,1.766,2.623,1.773,4.221.008,1.512-.49,2.891-1.403,3.883-2.456,2.667-9.305,9.467-11.763,11.9-2.483-2.407-9.401-9.136-11.883-11.779-.923-.981-1.436-2.355-1.443-3.868-.008-1.598.606-3.103,1.73-4.239Z"/>
  <path class="cls-1" d="M105.295,162.884l-6.964-1.052-3.084-6.248c-.451-.914-1.364-1.481-2.383-1.481s-1.932.568-2.383,1.481l-3.152,6.298-6.896,1.002c-1.008.147-1.83.84-2.145,1.808-.315.969-.057,2.013.673,2.724l5.015,4.944-1.178,6.868c-.172,1.004.233,2,1.057,2.599.823.599,1.896.676,2.798.202l6.252-3.243,6.168,3.243c.392.206.816.308,1.239.308.549,0,1.094-.172,1.559-.51.824-.599,1.229-1.595,1.057-2.599l-1.152-6.948,4.99-4.864c.73-.711.988-1.755.673-2.724-.315-.969-1.137-1.662-2.145-1.808ZM104.976,165.578l-4.99,4.864c-.626.61-.912,1.489-.765,2.352l1.178,6.869c.004.025.01.055-.036.088-.046.033-.073.018-.095.007l-6.168-3.242c-.387-.204-.812-.306-1.237-.306s-.849.102-1.237.305l-6.168,3.243c-.023.011-.05.026-.095-.007-.045-.033-.04-.063-.036-.088l1.178-6.868c.148-.862-.138-1.742-.764-2.352l-4.99-4.864c-.018-.018-.04-.039-.023-.093.018-.053.048-.058.073-.061l6.896-1.002c.866-.126,1.613-.67,2-1.453l3.084-6.249h0c.022-.044.14-.045.162,0l3.084,6.248c.387.784,1.135,1.328,2.001,1.454l6.896,1.002c.025.004.056.008.073.061.017.053-.005.075-.023.093Z"/>
  <path class="cls-1" d="M48.663,154.531h-14.343c-.742.006-1.447.325-1.937.877l-6.333,7.141c-.881.992-.876,2.483.01,3.468l13.5,15.029c.493.548,1.199.863,1.951.864.149-.002.296-.015.44-.04.572-.102,1.099-.395,1.483-.824l13.499-15.028c.887-.986.892-2.477.012-3.469l-6.333-7.139c-.493-.556-1.202-.876-1.949-.878ZM41.523,179.332c-.005.005-.011.008-.019.01,0,0-.033-.012-.035-.012l-13.499-15.078,6.362-7.154,14.36.014,6.334,7.189-13.502,15.031Z"/>
  <path class="cls-1" d="M74.403,103.163c-2.284.011-4.426.912-6.032,2.535-.467.472-.872.988-1.212,1.54-.345-.548-.757-1.061-1.228-1.528-1.623-1.606-3.759-2.446-6.058-2.472-2.284.012-4.425.912-6.032,2.535-1.607,1.623-2.484,3.774-2.473,6.058.011,2.164.771,4.158,2.14,5.613,3.076,3.273,12.473,12.354,12.872,12.739.249.241.57.361.891.361.326,0,.651-.123.901-.369.394-.389,9.698-9.566,12.74-12.871,1.354-1.471,2.094-3.472,2.082-5.634-.011-2.284-.912-4.426-2.535-6.032-1.623-1.606-3.78-2.452-6.057-2.472ZM79.024,115.563c-2.456,2.667-9.304,9.467-11.762,11.9-2.483-2.408-9.401-9.137-11.884-11.779-.923-.981-1.436-2.355-1.443-3.868-.008-1.598.606-3.103,1.73-4.239,1.124-1.135,2.623-1.766,4.221-1.773h.032c1.585,0,3.078.614,4.206,1.73,1.135,1.124,1.766,2.623,1.774,4.221.004.706.577,1.277,1.283,1.277h.007c.707-.004,1.277-.578,1.277-1.284v-.006c-.008-1.598.606-3.103,1.73-4.239,1.124-1.135,2.623-1.766,4.221-1.773h.032c1.585,0,3.078.614,4.206,1.73,1.135,1.124,1.766,2.623,1.773,4.221.008,1.511-.49,2.89-1.403,3.882Z"/>
  <path class="cls-1" d="M107.994,102.812c-.432-.156-.913-.073-1.264.223-.351.294-.518.754-.439,1.206l3.924,22.255c.079.452.394.826.825.983.431.155.912.072,1.264-.223l5.154-4.325,6.36,7.579c.254.302.617.458.984.458.291,0,.584-.099.824-.3l4.74-3.978c.261-.219.424-.532.453-.871.03-.339-.076-.676-.295-.937l-6.359-7.579,5.451-4.574c.351-.295.518-.755.439-1.206-.079-.451-.394-.826-.825-.983l-21.236-7.729ZM121.532,116.163c-.543.455-.614,1.265-.158,1.808l6.359,7.579-2.774,2.328-6.36-7.579c-.219-.261-.532-.424-.871-.453-.038-.003-.075-.005-.112-.005-.3,0-.593.106-.825.3l-4.434,3.721-3.152-17.877,17.058,6.208-4.731,3.97Z"/>
  <path class="cls-1" d="M27.38,62.13c0,5.934,4.828,10.763,10.763,10.763,2.506,0,4.808-.868,6.639-2.309l8.641,8.642c.251.251.579.376.907.376s.657-.125.907-.376c.501-.501.501-1.313,0-1.815l-8.641-8.642c1.441-1.831,2.309-4.134,2.309-6.639,0-5.935-4.828-10.763-10.763-10.763s-10.763,4.828-10.763,10.763ZM38.143,53.934c4.519,0,8.196,3.677,8.196,8.196s-3.677,8.196-8.196,8.196-8.196-3.677-8.196-8.196,3.677-8.196,8.196-8.196Z"/>
  <path class="cls-1" d="M144.232,79.602c7.784,0,14.117-6.333,14.117-14.117s-6.333-14.117-14.117-14.117-14.117,6.333-14.117,14.117,6.333,14.117,14.117,14.117ZM155.707,64.201h-5.084c-.142-3.503-.868-6.987-2.126-9.441,3.882,1.549,6.732,5.139,7.21,9.441ZM150.623,66.768h5.084c-.478,4.302-3.329,7.892-7.21,9.441,1.258-2.454,1.984-5.938,2.126-9.441ZM144.232,53.934c1.472,0,3.57,3.958,3.824,10.267h-7.649c.255-6.309,2.352-10.267,3.824-10.267ZM148.057,66.768c-.255,6.309-2.352,10.267-3.824,10.267s-3.569-3.958-3.824-10.267h7.649ZM139.968,54.76c-1.258,2.454-1.984,5.938-2.126,9.441h-5.084c.478-4.302,3.329-7.892,7.21-9.441ZM137.842,66.768c.142,3.503.868,6.987,2.126,9.441-3.882-1.549-6.732-5.139-7.21-9.441h5.084Z"/>
  <path class="cls-1" d="M108.923,28.234h19.251c.709,0,1.283-.574,1.283-1.283V9.63c0-.083-.009-.166-.024-.246,0-.002,0-.003,0-.005-.022-.109-.062-.211-.111-.31-.013-.026-.026-.05-.04-.074-.056-.097-.12-.19-.201-.271L120.734.376c-.081-.081-.173-.145-.271-.201-.025-.014-.05-.028-.075-.04-.098-.048-.2-.088-.307-.11-.004,0-.008,0-.011-.002-.079-.015-.161-.024-.243-.024h-10.904c-.709,0-1.283.574-1.283,1.283v25.668c0,.709.574,1.283,1.283,1.283ZM121.11,4.382l3.965,3.965h-3.965v-3.965ZM110.207,2.567h8.337v7.064c0,.709.574,1.283,1.283,1.283h7.064v14.754h-16.684V2.567Z"/>
  <path class="cls-1" d="M161.584,23.761c.079.452.394.826.825.983.43.156.912.072,1.264-.223l5.154-4.325,6.36,7.58c.219.261.532.424.871.453.038.003.075.005.112.005.3,0,.593-.106.825-.3l4.741-3.978c.261-.219.424-.532.453-.871.03-.339-.076-.676-.295-.937l-6.36-7.579,5.451-4.574c.351-.294.518-.754.439-1.206-.079-.452-.394-.826-.825-.983L159.362.077c-.432-.156-.913-.072-1.264.223-.351.294-.518.754-.439,1.206l3.924,22.255ZM177.631,9.458l-4.731,3.97c-.261.219-.424.532-.453.871-.03.339.076.676.295.937l6.36,7.579-2.774,2.328-6.36-7.58c-.219-.261-.532-.424-.871-.453-.038-.003-.075-.005-.112-.005-.3,0-.593.106-.825.3l-4.434,3.721-3.152-17.877,17.058,6.209Z"/>
  <path class="cls-1" d="M57.198,24.099c.853.853,1.797,1.558,2.79,2.147.044.033.085.068.134.096.032.018.066.025.098.041,2.152,1.22,4.553,1.844,6.96,1.844s4.807-.624,6.959-1.844c.033-.016.068-.023.1-.041.049-.028.091-.064.135-.097.993-.589,1.935-1.293,2.788-2.146,2.72-2.72,4.091-6.283,4.122-9.856.004-.042.013-.083.013-.126s-.008-.084-.013-.126c-.031-3.573-1.402-7.137-4.122-9.857-.853-.853-1.795-1.557-2.787-2.145-.044-.034-.087-.069-.136-.098-.041-.024-.085-.039-.128-.057-4.29-2.418-9.573-2.418-13.863,0-.042.019-.086.033-.126.057-.049.029-.092.064-.136.098-.993.589-1.935,1.293-2.788,2.146-2.721,2.721-4.091,6.285-4.122,9.859-.004.041-.013.081-.013.124s.008.083.013.124c.031,3.574,1.402,7.138,4.122,9.858ZM60.337,23.405c-.46-.339-.907-.704-1.324-1.12-1.925-1.925-3.02-4.368-3.299-6.884h3.884c.256,1.525.964,2.987,2.138,4.161.173.173.354.333.539.487l-1.938,3.356ZM63.551,10.487c1.001-1.001,2.315-1.501,3.63-1.501s2.629.5,3.63,1.501c2.001,2.002,2.001,5.259,0,7.26-2.002,2.001-5.259,2.001-7.26,0-2.002-2.002-2.002-5.258,0-7.26ZM62.558,24.691l1.942-3.364c.863.32,1.771.487,2.68.487s1.818-.167,2.681-.487l1.942,3.363c-2.941,1.282-6.304,1.282-9.246,0ZM75.348,22.285c-.416.416-.863.781-1.323,1.12l-1.938-3.356c.185-.153.365-.314.539-.487,1.174-1.174,1.882-2.637,2.138-4.161h3.884c-.279,2.516-1.374,4.959-3.3,6.884ZM74.026,4.828c.462.342.909.708,1.322,1.122,1.925,1.925,3.021,4.368,3.3,6.884h-3.884c-.256-1.525-.964-2.988-2.138-4.162-.173-.173-.354-.333-.539-.487l1.939-3.358ZM67.181,2.566c1.62,0,3.186.339,4.627.97l-1.946,3.371c-1.727-.639-3.635-.639-5.362,0l-1.946-3.371c1.441-.631,3.007-.97,4.627-.97ZM59.013,5.949c.414-.414.861-.78,1.323-1.122l1.939,3.358c-.185.153-.365.313-.538.487-1.174,1.174-1.882,2.637-2.138,4.162h-3.884c.279-2.517,1.374-4.959,3.299-6.884Z"/>
  <path class="cls-1" d="M140.878,154.103c-5.934,0-10.763,4.828-10.763,10.763s4.828,10.763,10.763,10.763c2.506,0,4.808-.868,6.639-2.309l8.642,8.642c.251.251.579.376.907.376s.657-.125.907-.376c.501-.501.501-1.314,0-1.815l-8.642-8.642c1.441-1.831,2.309-4.134,2.309-6.639,0-5.934-4.828-10.763-10.763-10.763ZM140.878,173.062c-4.519,0-8.196-3.677-8.196-8.196s3.677-8.196,8.196-8.196,8.196,3.677,8.196,8.196-3.677,8.196-8.196,8.196Z"/>
  <path class="cls-1" d="M160.291,130.969h19.251c.709,0,1.283-.574,1.283-1.283v-17.32c0-.083-.009-.166-.024-.246,0-.002,0-.003,0-.005-.022-.109-.062-.211-.111-.311-.012-.026-.026-.05-.04-.074-.056-.097-.12-.19-.201-.271l-8.347-8.347c-.081-.081-.173-.145-.271-.201-.025-.014-.049-.028-.075-.04-.098-.048-.199-.087-.305-.109-.005,0-.009-.001-.014-.002-.079-.015-.16-.024-.242-.024h-10.903c-.709,0-1.283.574-1.283,1.283v25.668c0,.709.574,1.283,1.283,1.283ZM172.478,107.117l3.966,3.966h-3.966v-3.966ZM161.574,105.302h8.337v7.064c0,.709.574,1.283,1.283,1.283h7.064v14.754h-16.684v-23.101Z"/>
  <path class="cls-1" d="M25.796,106.87c-.853-.853-1.796-1.558-2.789-2.146-.044-.033-.086-.069-.135-.097-.041-.024-.084-.038-.126-.057-4.291-2.419-9.575-2.419-13.865,0-.042.019-.085.033-.126.057-.049.028-.091.064-.135.097-.993.589-1.936,1.293-2.789,2.146-2.72,2.72-4.091,6.283-4.122,9.856-.004.042-.013.083-.013.126s.009.084.013.126c.031,3.573,1.402,7.137,4.122,9.857.853.853,1.795,1.557,2.788,2.146.044.034.086.069.135.097.032.019.067.026.1.041,2.152,1.22,4.552,1.844,6.959,1.844s4.808-.624,6.96-1.844c.032-.015.067-.022.098-.041.049-.028.09-.063.134-.096.994-.589,1.937-1.294,2.79-2.147,2.721-2.721,4.091-6.285,4.122-9.859.004-.041.012-.081.012-.124s-.008-.083-.012-.124c-.031-3.574-1.402-7.138-4.122-9.858ZM22.657,107.565c.46.339.907.704,1.324,1.12,1.925,1.925,3.02,4.368,3.299,6.884h-3.884c-.256-1.525-.964-2.987-2.138-4.161-.173-.173-.354-.334-.538-.487l1.938-3.356ZM19.443,120.483c-2.002,2.002-5.258,2.002-7.26,0-2.001-2.002-2.001-5.259,0-7.26,1.001-1.001,2.315-1.501,3.63-1.501s2.629.5,3.63,1.501c2.002,2.002,2.002,5.258,0,7.26ZM15.813,105.307c1.578,0,3.152.331,4.623.971l-1.942,3.364c-1.727-.639-3.635-.639-5.362,0l-1.942-3.364c1.471-.641,3.045-.972,4.623-.972ZM7.646,108.685c.416-.416.863-.781,1.323-1.12l1.938,3.356c-.185.153-.365.313-.538.487-1.174,1.174-1.882,2.637-2.138,4.161h-3.884c.279-2.516,1.374-4.959,3.3-6.884ZM8.968,126.142c-.462-.342-.909-.708-1.322-1.122-1.925-1.925-3.021-4.368-3.3-6.884h3.884c.256,1.525.964,2.988,2.138,4.162.173.173.354.334.538.487l-1.939,3.358ZM15.813,128.403c-1.62,0-3.186-.339-4.627-.97l1.946-3.37c.864.319,1.771.487,2.681.487s1.817-.167,2.681-.487l1.946,3.371c-1.441.631-3.007.97-4.627.97ZM23.981,125.02c-.414.414-.861.78-1.323,1.122l-1.939-3.358c.185-.153.365-.314.538-.487,1.174-1.174,1.882-2.637,2.138-4.162h3.884c-.279,2.517-1.374,4.959-3.299,6.884Z"/>
  <path class="cls-1" d="M205.471,174.176c-1.297,2.138-3.257,3.831-5.606,4.769,1.258-2.454,1.984-5.938,2.126-9.441h3.48v-2.567h-3.48c-.142-3.503-.868-6.987-2.126-9.441,2.349.938,4.31,2.631,5.606,4.769v-4.119c-2.548-2.496-6.03-4.042-9.87-4.042-7.784,0-14.117,6.333-14.117,14.117s6.333,14.117,14.117,14.117c3.84,0,7.323-1.546,9.87-4.042v-4.119ZM184.125,169.504h5.084c.142,3.503.868,6.987,2.126,9.441-3.882-1.549-6.732-5.139-7.21-9.441ZM189.209,166.937h-5.084c.478-4.302,3.329-7.892,7.21-9.441-1.258,2.454-1.984,5.938-2.126,9.441ZM195.6,179.771c-1.472,0-3.569-3.958-3.824-10.267h7.649c-.255,6.309-2.352,10.267-3.824,10.267ZM191.776,166.937c.255-6.309,2.352-10.267,3.824-10.267s3.569,3.958,3.824,10.267h-7.649Z"/>
  <path class="cls-1" d="M205.471,75.319l-.958-5.774.958-.933v-3.584l-2.749,2.679c-.626.61-.912,1.489-.764,2.352l1.178,6.869c.004.025.01.055-.036.088-.046.033-.073.018-.095.007l-6.169-3.243c-.774-.406-1.698-.406-2.472,0l-6.168,3.243c-.022.011-.049.027-.095-.007-.046-.033-.04-.064-.036-.088l1.178-6.868c.148-.862-.138-1.741-.765-2.352l-4.99-4.864c-.018-.018-.04-.039-.023-.092.018-.053.048-.058.073-.061l6.897-1.002c.865-.126,1.613-.67,2-1.453l3.084-6.249h0c.011-.023.025-.051.081-.051.056,0,.07.028.081.051l3.084,6.248c.387.784,1.135,1.328,2.001,1.454l4.705.684v-2.608l-4.404-.665-3.084-6.248c-.451-.914-1.364-1.481-2.383-1.481s-1.932.568-2.383,1.481l-3.152,6.298-6.896,1.002c-1.008.147-1.83.84-2.145,1.809-.315.969-.057,2.012.673,2.723l5.016,4.944-1.178,6.868c-.172,1.004.233,2,1.057,2.599.466.338,1.011.51,1.56.51.422,0,.847-.102,1.239-.308l6.251-3.243,6.168,3.243c.901.475,1.974.397,2.798-.202.39-.283.677-.659.862-1.079v-2.693Z"/>
  <path class="cls-1" d="M4.247,168.22C4.247,164.276,2.617,160.709,0,158.145v4.119c.846,1.395,1.415,2.974,1.604,4.672H0v2.567h1.604c-.189,1.698-.759,3.278-1.604,4.672v4.119c2.617-2.564,4.247-6.131,4.247-10.075Z"/>
</svg>